<svg xmlns="http://www.w3.org/2000/svg" viewBox="0 0 256 256" width="256" height="256" role="img" aria-label="AIプログラマー">
  <defs>
    <radialGradient id="bg" cx="35%" cy="15%" r="95%">
      <stop offset="0%" stop-color="#22d3ee" stop-opacity=".38"/>
      <stop offset="55%" stop-color="#0d1530"/>
      <stop offset="100%" stop-color="#05070f"/>
    </radialGradient>
    <linearGradient id="suit" x1="0" y1="0" x2="0" y2="1">
      <stop offset="0%" stop-color="#14263a"/>
      <stop offset="100%" stop-color="#0a1024"/>
    </linearGradient>
    <clipPath id="clip"><rect width="256" height="256" rx="26"/></clipPath>
  </defs>

  <g clip-path="url(#clip)">
    <rect width="256" height="256" fill="url(#bg)"/>
    <g stroke="#22d3ee" stroke-opacity=".14" stroke-width="1">
      <path d="M0 64h256M0 128h256M0 192h256M64 0v256M128 0v256M192 0v256"/>
    </g>
    <circle cx="128" cy="150" r="86" fill="#22d3ee" opacity=".07"/>

    <!-- 肩 -->
    <path d="M128 188c-42 0-72 22-80 68h160c-8-46-38-68-80-68z" fill="url(#suit)"/>
    <path d="M112 190l16 18 16-18c-6-4-10-6-16-6s-10 2-16 6z" fill="#e8edf7" opacity=".92"/>
    
    

    <!-- 首 -->
    <path d="M114 164h28v26c0 6-28 6-28 0z" fill="#e4bda4"/>
    <!-- 顔 -->
    <ellipse cx="128" cy="126" rx="44" ry="50" fill="#f2d3bd"/>
    <!-- 髪 -->
    <path d="M82 116c-6-40 16-64 46-64s52 24 46 64c-3-16-7-26-12-30-12 8-42 10-58 3-8 5-14 13-16 27z" fill="#20242e"/><path d="M80 100c-2 22 0 34 4 44l-10-2c-4-14-4-30 0-44z" fill="#20242e"/><path d="M176 100c2 22 0 34-4 44l10-2c4-14 4-30 0-44z" fill="#20242e"/>
    <!-- 目 -->
    <g fill="#1b2334">
      <ellipse cx="110" cy="128" rx="4.6" ry="5.6"/>
      <ellipse cx="146" cy="128" rx="4.6" ry="5.6"/>
    </g>
    <g fill="#ffffff" opacity=".85">
      <circle cx="111.6" cy="126" r="1.6"/>
      <circle cx="147.6" cy="126" r="1.6"/>
    </g>
    <!-- 眉 -->
    <g stroke="#20242e" stroke-width="3.4" stroke-linecap="round" opacity=".95">
      <path d="M101 117l17 -2"/>
      <path d="M155 117l-17 -2"/>
    </g>
    <!-- 口 -->
    <path d="M118 149c6 4 14 4 20 0" fill="none" stroke="#8a5a52" stroke-width="3" stroke-linecap="round"/>

    
  <g fill="none" stroke="#22d3ee" stroke-width="3" opacity=".9">
    <rect x="94" y="112" width="30" height="22" rx="6"/>
    <rect x="132" y="112" width="30" height="22" rx="6"/>
    <path d="M124 122h8M94 118l-10 3M162 118l10 3"/>
  </g>
    

    <!-- 稼働ランプ -->
    <circle cx="226" cy="30" r="7" fill="#22d3ee"/>
    <circle cx="226" cy="30" r="12" fill="none" stroke="#22d3ee" stroke-opacity=".4" stroke-width="2"/>
  </g>
  <rect x="1" y="1" width="254" height="254" rx="26" fill="none" stroke="#22d3ee" stroke-opacity=".55" stroke-width="2"/>
</svg>